<svg width="2560" height="1440" viewBox="0 0 2560 1440" fill="none" xmlns="http://www.w3.org/2000/svg" role="img" aria-label="Flowstack YouTube channel art">
  <title>Flowstack — YouTube channel art, 2560×1440 (safe area 1546×423 centered)</title>
  <rect width="2560" height="1440" fill="#000000"/>

  <!-- 160px grid -->
  <g stroke="rgba(255,255,255,0.08)" stroke-width="1">
    <line x1="0" y1="160" x2="2560" y2="160"/>
    <line x1="0" y1="320" x2="2560" y2="320"/>
    <line x1="0" y1="480" x2="2560" y2="480"/>
    <line x1="0" y1="640" x2="2560" y2="640"/>
    <line x1="0" y1="800" x2="2560" y2="800"/>
    <line x1="0" y1="960" x2="2560" y2="960"/>
    <line x1="0" y1="1120" x2="2560" y2="1120"/>
    <line x1="0" y1="1280" x2="2560" y2="1280"/>
    <line x1="160" y1="0" x2="160" y2="1440"/>
    <line x1="320" y1="0" x2="320" y2="1440"/>
    <line x1="480" y1="0" x2="480" y2="1440"/>
    <line x1="640" y1="0" x2="640" y2="1440"/>
    <line x1="800" y1="0" x2="800" y2="1440"/>
    <line x1="960" y1="0" x2="960" y2="1440"/>
    <line x1="1280" y1="0" x2="1280" y2="1440"/>
    <line x1="1600" y1="0" x2="1600" y2="1440"/>
    <line x1="1760" y1="0" x2="1760" y2="1440"/>
    <line x1="1920" y1="0" x2="1920" y2="1440"/>
    <line x1="2080" y1="0" x2="2080" y2="1440"/>
    <line x1="2240" y1="0" x2="2240" y2="1440"/>
    <line x1="2400" y1="0" x2="2400" y2="1440"/>
  </g>

  <!-- safe area outline (commented in production; visible while working) -->
  <!-- safe area is 1546×423 centered: x=507 y=508 -->

  <!-- everything important goes inside the safe area -->
  <g transform="translate(507 508)">
    <!-- corner ticks at safe-area corners -->
    <g stroke="#FFFFFF" stroke-width="4" fill="none">
      <path d="M0 24 L0 0 L24 0"/>
      <path d="M1522 0 L1546 0 L1546 24"/>
      <path d="M0 399 L0 423 L24 423"/>
      <path d="M1522 423 L1546 423 L1546 399"/>
    </g>

    <!-- sheet ref top-left in safe area -->
    <g font-family="ui-monospace, Menlo, monospace" fill="#6B6B6B" font-size="24" letter-spacing="6">
      <rect x="60" y="42" width="18" height="18" fill="none" stroke="#FFFFFF" stroke-width="2"/>
      <text x="92" y="60">FIG. 00 / FLOWSTACK</text>
    </g>

    <!-- wide mark, centered horizontally in safe area -->
    <g transform="translate(440 74) scale(0.82)">
      <path d="M0 110 H120" stroke="#FFFFFF" stroke-width="18"/>
      <rect x="135" y="47.5" width="410" height="125" stroke="#FFFFFF" stroke-width="18" fill="none"/>
      <rect x="205" y="85" width="50" height="50" fill="#FFFFFF"/>
      <rect x="375" y="85" width="50" height="50" stroke="#FFFFFF" stroke-width="12" fill="none"/>
      <path d="M545 110 H660" stroke="#FFFFFF" stroke-width="18"/>
      <path d="M635 75 L680 110 L635 145" stroke="#FFFFFF" stroke-width="18" stroke-linecap="square" stroke-linejoin="miter" fill="none"/>
    </g>

    <!-- tagline below mark — canonical three-beat, third beat in signal yellow -->
    <g font-family="sans-serif" fill="#FFFFFF" font-weight="600" font-size="40" text-anchor="middle">
      <text x="773" y="300">Automate the busywork.</text>
      <text x="773" y="352">Aggregate the data.</text>
      <text x="773" y="404" fill="#F5C518">Answer every inbound.</text>
    </g>
  </g>

  <!-- outside-safe-area baseline (only desktop sees this) -->
  <g font-family="ui-monospace, Menlo, monospace" font-size="22" letter-spacing="6" fill="#6B6B6B">
    <text x="160" y="1340" fill="#FFFFFF" letter-spacing="3">FLOWSTACK / AUTOMATION</text>
    <text x="2400" y="1340" text-anchor="end">SHEET 01 · REV A · SCALE 1:1</text>
  </g>
</svg>
